<mxfile host="app.diagrams.net" modified="2021-12-23T10:28:09.781Z" agent="5.0 (Windows NT 10.0; Win64; x64) AppleWebKit/537.36 (KHTML, like Gecko) Chrome/96.0.4664.93 Safari/537.36" etag="La1CAV2ugR2LEYnzweBg" version="16.0.3" type="github">
  <diagram id="X3CGiPZ-fYhS-7ZTtQvq" name="Page-1">
    <mxGraphModel dx="1730" dy="912" grid="1" gridSize="10" guides="1" tooltips="1" connect="1" arrows="1" fold="1" page="1" pageScale="1" pageWidth="827" pageHeight="1169" math="0" shadow="0">
      <root>
        <mxCell id="0" />
        <mxCell id="1" parent="0" />
        <mxCell id="oMoR7sOk6pPhSL6UZnWa-1" value="[achieve]课程交易量" style="rounded=0;whiteSpace=wrap;html=1;" parent="1" vertex="1">
          <mxGeometry x="650" y="60" width="130" height="50" as="geometry" />
        </mxCell>
        <mxCell id="oMoR7sOk6pPhSL6UZnWa-2" style="edgeStyle=orthogonalEdgeStyle;rounded=0;orthogonalLoop=1;jettySize=auto;html=1;entryX=0.5;entryY=1;entryDx=0;entryDy=0;" parent="1" source="oMoR7sOk6pPhSL6UZnWa-3" target="oMoR7sOk6pPhSL6UZnWa-1" edge="1">
          <mxGeometry relative="1" as="geometry" />
        </mxCell>
        <mxCell id="oMoR7sOk6pPhSL6UZnWa-3" value="[achieve]用户的购买率" style="rounded=0;whiteSpace=wrap;html=1;" parent="1" vertex="1">
          <mxGeometry x="660" y="230" width="130" height="40" as="geometry" />
        </mxCell>
        <mxCell id="oMoR7sOk6pPhSL6UZnWa-4" value="[max] 课程数量" style="rounded=0;whiteSpace=wrap;html=1;" parent="1" vertex="1">
          <mxGeometry x="1050" y="220" width="130" height="50" as="geometry" />
        </mxCell>
        <mxCell id="oMoR7sOk6pPhSL6UZnWa-5" value="[achieve]用户基数" style="rounded=0;whiteSpace=wrap;html=1;" parent="1" vertex="1">
          <mxGeometry x="290" y="220" width="130" height="50" as="geometry" />
        </mxCell>
        <mxCell id="oMoR7sOk6pPhSL6UZnWa-6" style="edgeStyle=orthogonalEdgeStyle;rounded=0;orthogonalLoop=1;jettySize=auto;html=1;exitX=0.5;exitY=0;exitDx=0;exitDy=0;entryX=1;entryY=0.5;entryDx=0;entryDy=0;" parent="1" source="oMoR7sOk6pPhSL6UZnWa-7" target="oMoR7sOk6pPhSL6UZnWa-3" edge="1">
          <mxGeometry relative="1" as="geometry" />
        </mxCell>
        <mxCell id="oMoR7sOk6pPhSL6UZnWa-7" value="[max] 课程优惠力度" style="rounded=0;whiteSpace=wrap;html=1;" parent="1" vertex="1">
          <mxGeometry x="800" y="510" width="110" height="40" as="geometry" />
        </mxCell>
        <mxCell id="oMoR7sOk6pPhSL6UZnWa-8" style="edgeStyle=orthogonalEdgeStyle;rounded=0;orthogonalLoop=1;jettySize=auto;html=1;entryX=0.5;entryY=1;entryDx=0;entryDy=0;" parent="1" source="oMoR7sOk6pPhSL6UZnWa-9" target="oMoR7sOk6pPhSL6UZnWa-3" edge="1">
          <mxGeometry relative="1" as="geometry" />
        </mxCell>
        <mxCell id="oMoR7sOk6pPhSL6UZnWa-9" value="[max] 相关课程推荐精确度" style="rounded=0;whiteSpace=wrap;html=1;" parent="1" vertex="1">
          <mxGeometry x="660" y="410" width="130" height="50" as="geometry" />
        </mxCell>
        <mxCell id="oMoR7sOk6pPhSL6UZnWa-10" style="edgeStyle=orthogonalEdgeStyle;rounded=0;orthogonalLoop=1;jettySize=auto;html=1;" parent="1" source="oMoR7sOk6pPhSL6UZnWa-11" target="oMoR7sOk6pPhSL6UZnWa-3" edge="1">
          <mxGeometry relative="1" as="geometry">
            <Array as="points">
              <mxPoint x="520" y="300" />
              <mxPoint x="640" y="300" />
              <mxPoint x="640" y="250" />
            </Array>
          </mxGeometry>
        </mxCell>
        <mxCell id="oMoR7sOk6pPhSL6UZnWa-11" value="[max] 课程质量" style="rounded=0;whiteSpace=wrap;html=1;" parent="1" vertex="1">
          <mxGeometry x="500" y="500" width="130" height="50" as="geometry" />
        </mxCell>
        <mxCell id="oMoR7sOk6pPhSL6UZnWa-12" style="edgeStyle=orthogonalEdgeStyle;rounded=0;orthogonalLoop=1;jettySize=auto;html=1;exitX=0.5;exitY=0;exitDx=0;exitDy=0;entryX=0.5;entryY=1;entryDx=0;entryDy=0;startArrow=none;" parent="1" source="oMoR7sOk6pPhSL6UZnWa-36" target="oMoR7sOk6pPhSL6UZnWa-4" edge="1">
          <mxGeometry relative="1" as="geometry" />
        </mxCell>
        <mxCell id="oMoR7sOk6pPhSL6UZnWa-13" value="[max] 合作商收入占比" style="rounded=0;whiteSpace=wrap;html=1;" parent="1" vertex="1">
          <mxGeometry x="970" y="450" width="100" height="40" as="geometry" />
        </mxCell>
        <mxCell id="oMoR7sOk6pPhSL6UZnWa-14" style="edgeStyle=orthogonalEdgeStyle;rounded=0;orthogonalLoop=1;jettySize=auto;html=1;" parent="1" source="oMoR7sOk6pPhSL6UZnWa-15" edge="1">
          <mxGeometry relative="1" as="geometry">
            <mxPoint x="1120" y="360" as="targetPoint" />
            <Array as="points">
              <mxPoint x="1213" y="360" />
            </Array>
          </mxGeometry>
        </mxCell>
        <mxCell id="oMoR7sOk6pPhSL6UZnWa-15" value="[avoid]摄影机构流失" style="rounded=0;whiteSpace=wrap;html=1;" parent="1" vertex="1">
          <mxGeometry x="1168" y="450" width="90" height="40" as="geometry" />
        </mxCell>
        <mxCell id="oMoR7sOk6pPhSL6UZnWa-16" style="edgeStyle=orthogonalEdgeStyle;rounded=0;orthogonalLoop=1;jettySize=auto;html=1;entryX=0.5;entryY=1;entryDx=0;entryDy=0;" parent="1" source="oMoR7sOk6pPhSL6UZnWa-17" target="oMoR7sOk6pPhSL6UZnWa-11" edge="1">
          <mxGeometry relative="1" as="geometry" />
        </mxCell>
        <mxCell id="oMoR7sOk6pPhSL6UZnWa-17" value="[achieve]课程评价" style="rounded=0;whiteSpace=wrap;html=1;" parent="1" vertex="1">
          <mxGeometry x="600" y="660" width="90" height="40" as="geometry" />
        </mxCell>
        <mxCell id="oMoR7sOk6pPhSL6UZnWa-18" value="" style="edgeStyle=orthogonalEdgeStyle;rounded=0;orthogonalLoop=1;jettySize=auto;html=1;" parent="1" source="oMoR7sOk6pPhSL6UZnWa-19" target="oMoR7sOk6pPhSL6UZnWa-11" edge="1">
          <mxGeometry relative="1" as="geometry" />
        </mxCell>
        <mxCell id="oMoR7sOk6pPhSL6UZnWa-19" value="[achieve] 奖惩机制" style="rounded=0;whiteSpace=wrap;html=1;" parent="1" vertex="1">
          <mxGeometry x="440" y="660" width="90" height="40" as="geometry" />
        </mxCell>
        <mxCell id="oMoR7sOk6pPhSL6UZnWa-20" style="edgeStyle=orthogonalEdgeStyle;rounded=0;orthogonalLoop=1;jettySize=auto;html=1;entryX=0.5;entryY=1;entryDx=0;entryDy=0;" parent="1" source="oMoR7sOk6pPhSL6UZnWa-21" target="oMoR7sOk6pPhSL6UZnWa-7" edge="1">
          <mxGeometry relative="1" as="geometry" />
        </mxCell>
        <mxCell id="oMoR7sOk6pPhSL6UZnWa-21" value="[min]平台抽成" style="rounded=0;whiteSpace=wrap;html=1;" parent="1" vertex="1">
          <mxGeometry x="800" y="680" width="110" height="35" as="geometry" />
        </mxCell>
        <mxCell id="oMoR7sOk6pPhSL6UZnWa-22" style="edgeStyle=orthogonalEdgeStyle;rounded=0;orthogonalLoop=1;jettySize=auto;html=1;entryX=0.5;entryY=1;entryDx=0;entryDy=0;" parent="1" source="oMoR7sOk6pPhSL6UZnWa-23" target="oMoR7sOk6pPhSL6UZnWa-5" edge="1">
          <mxGeometry relative="1" as="geometry">
            <mxPoint x="355" y="280" as="targetPoint" />
          </mxGeometry>
        </mxCell>
        <mxCell id="oMoR7sOk6pPhSL6UZnWa-23" value="[max] 平台曝光度" style="rounded=0;whiteSpace=wrap;html=1;" parent="1" vertex="1">
          <mxGeometry x="305" y="370" width="100" height="30" as="geometry" />
        </mxCell>
        <mxCell id="oMoR7sOk6pPhSL6UZnWa-24" style="edgeStyle=orthogonalEdgeStyle;rounded=0;orthogonalLoop=1;jettySize=auto;html=1;entryX=0.25;entryY=1;entryDx=0;entryDy=0;" parent="1" source="oMoR7sOk6pPhSL6UZnWa-25" target="oMoR7sOk6pPhSL6UZnWa-23" edge="1">
          <mxGeometry relative="1" as="geometry" />
        </mxCell>
        <mxCell id="oMoR7sOk6pPhSL6UZnWa-25" value="[max] 广告合作商渠道曝光度" style="rounded=0;whiteSpace=wrap;html=1;" parent="1" vertex="1">
          <mxGeometry x="240" y="510" width="100" height="30" as="geometry" />
        </mxCell>
        <mxCell id="oMoR7sOk6pPhSL6UZnWa-26" value="" style="strokeWidth=2;html=1;shape=mxgraph.flowchart.start_2;whiteSpace=wrap;fillColor=#000000;" parent="1" vertex="1">
          <mxGeometry x="700" y="150" width="30" height="30" as="geometry" />
        </mxCell>
        <mxCell id="oMoR7sOk6pPhSL6UZnWa-27" value="" style="strokeWidth=2;html=1;shape=mxgraph.flowchart.start_2;whiteSpace=wrap;" parent="1" vertex="1">
          <mxGeometry x="710" y="330" width="30" height="30" as="geometry" />
        </mxCell>
        <mxCell id="oMoR7sOk6pPhSL6UZnWa-28" value="" style="strokeWidth=2;html=1;shape=mxgraph.flowchart.start_2;whiteSpace=wrap;" parent="1" vertex="1">
          <mxGeometry x="500" y="370" width="30" height="30" as="geometry" />
        </mxCell>
        <mxCell id="oMoR7sOk6pPhSL6UZnWa-29" value="" style="strokeWidth=2;html=1;shape=mxgraph.flowchart.start_2;whiteSpace=wrap;" parent="1" vertex="1">
          <mxGeometry x="840" y="360" width="30" height="30" as="geometry" />
        </mxCell>
        <mxCell id="oMoR7sOk6pPhSL6UZnWa-30" value="" style="strokeWidth=2;html=1;shape=mxgraph.flowchart.start_2;whiteSpace=wrap;" parent="1" vertex="1">
          <mxGeometry x="340" y="300" width="30" height="30" as="geometry" />
        </mxCell>
        <mxCell id="oMoR7sOk6pPhSL6UZnWa-31" value="" style="strokeWidth=2;html=1;shape=mxgraph.flowchart.start_2;whiteSpace=wrap;" parent="1" vertex="1">
          <mxGeometry x="275" y="440" width="30" height="30" as="geometry" />
        </mxCell>
        <mxCell id="oMoR7sOk6pPhSL6UZnWa-32" value="" style="strokeWidth=2;html=1;shape=mxgraph.flowchart.start_2;whiteSpace=wrap;" parent="1" vertex="1">
          <mxGeometry x="840" y="600" width="30" height="30" as="geometry" />
        </mxCell>
        <mxCell id="oMoR7sOk6pPhSL6UZnWa-33" value="" style="strokeWidth=2;html=1;shape=mxgraph.flowchart.start_2;whiteSpace=wrap;fillColor=#000000;" parent="1" vertex="1">
          <mxGeometry x="550" y="590" width="30" height="30" as="geometry" />
        </mxCell>
        <mxCell id="oMoR7sOk6pPhSL6UZnWa-34" value="" style="endArrow=none;html=1;entryX=1;entryY=0.5;entryDx=0;entryDy=0;entryPerimeter=0;exitX=0.554;exitY=0.02;exitDx=0;exitDy=0;exitPerimeter=0;" parent="1" source="oMoR7sOk6pPhSL6UZnWa-4" target="oMoR7sOk6pPhSL6UZnWa-26" edge="1">
          <mxGeometry width="50" height="50" relative="1" as="geometry">
            <mxPoint x="1120" y="165" as="sourcePoint" />
            <mxPoint x="760" y="160" as="targetPoint" />
            <Array as="points">
              <mxPoint x="1120" y="170" />
            </Array>
          </mxGeometry>
        </mxCell>
        <mxCell id="oMoR7sOk6pPhSL6UZnWa-35" value="" style="endArrow=none;html=1;exitX=0.5;exitY=0;exitDx=0;exitDy=0;" parent="1" source="oMoR7sOk6pPhSL6UZnWa-5" edge="1">
          <mxGeometry width="50" height="50" relative="1" as="geometry">
            <mxPoint x="350" y="160" as="sourcePoint" />
            <mxPoint x="700" y="160" as="targetPoint" />
            <Array as="points">
              <mxPoint x="355" y="160" />
            </Array>
          </mxGeometry>
        </mxCell>
        <mxCell id="oMoR7sOk6pPhSL6UZnWa-36" value="" style="strokeWidth=2;html=1;shape=mxgraph.flowchart.start_2;whiteSpace=wrap;fillColor=#000000;" parent="1" vertex="1">
          <mxGeometry x="1100" y="340" width="30" height="30" as="geometry" />
        </mxCell>
        <mxCell id="oMoR7sOk6pPhSL6UZnWa-37" value="" style="edgeStyle=orthogonalEdgeStyle;rounded=0;orthogonalLoop=1;jettySize=auto;html=1;exitX=0.5;exitY=0;exitDx=0;exitDy=0;entryX=0.5;entryY=1;entryDx=0;entryDy=0;endArrow=none;" parent="1" source="oMoR7sOk6pPhSL6UZnWa-13" target="oMoR7sOk6pPhSL6UZnWa-36" edge="1">
          <mxGeometry relative="1" as="geometry">
            <mxPoint x="1020" y="450" as="sourcePoint" />
            <mxPoint x="1115" y="270" as="targetPoint" />
            <Array as="points">
              <mxPoint x="1020" y="360" />
              <mxPoint x="1115" y="360" />
            </Array>
          </mxGeometry>
        </mxCell>
        <mxCell id="fz4qHe9QPu19-6VbCRjk-1" value="" style="verticalLabelPosition=bottom;verticalAlign=top;html=1;shape=hexagon;perimeter=hexagonPerimeter2;arcSize=6;size=0.27;" vertex="1" parent="1">
          <mxGeometry x="1060" y="770" width="160" height="60" as="geometry" />
        </mxCell>
        <mxCell id="fz4qHe9QPu19-6VbCRjk-2" value="" style="shape=umlActor;verticalLabelPosition=bottom;verticalAlign=top;html=1;" vertex="1" parent="1">
          <mxGeometry x="1100" y="781" width="20" height="38" as="geometry" />
        </mxCell>
        <mxCell id="fz4qHe9QPu19-6VbCRjk-3" value="摄影机构" style="text;html=1;strokeColor=none;fillColor=none;align=center;verticalAlign=middle;whiteSpace=wrap;rounded=0;" vertex="1" parent="1">
          <mxGeometry x="1130" y="789" width="60" height="30" as="geometry" />
        </mxCell>
        <mxCell id="fz4qHe9QPu19-6VbCRjk-5" value="" style="verticalLabelPosition=bottom;verticalAlign=top;html=1;shape=hexagon;perimeter=hexagonPerimeter2;arcSize=6;size=0.27;" vertex="1" parent="1">
          <mxGeometry x="420" y="764" width="160" height="60" as="geometry" />
        </mxCell>
        <mxCell id="fz4qHe9QPu19-6VbCRjk-7" value="" style="shape=umlActor;verticalLabelPosition=bottom;verticalAlign=top;html=1;" vertex="1" parent="1">
          <mxGeometry x="450" y="775" width="20" height="38" as="geometry" />
        </mxCell>
        <mxCell id="fz4qHe9QPu19-6VbCRjk-8" value="平台系统" style="text;html=1;strokeColor=none;fillColor=none;align=center;verticalAlign=middle;whiteSpace=wrap;rounded=0;" vertex="1" parent="1">
          <mxGeometry x="470" y="779" width="60" height="30" as="geometry" />
        </mxCell>
        <mxCell id="fz4qHe9QPu19-6VbCRjk-10" value="" style="verticalLabelPosition=bottom;verticalAlign=top;html=1;shape=hexagon;perimeter=hexagonPerimeter2;arcSize=6;size=0.27;" vertex="1" parent="1">
          <mxGeometry x="645" y="770" width="160" height="60" as="geometry" />
        </mxCell>
        <mxCell id="fz4qHe9QPu19-6VbCRjk-11" value="" style="shape=umlActor;verticalLabelPosition=bottom;verticalAlign=top;html=1;" vertex="1" parent="1">
          <mxGeometry x="680" y="781" width="20" height="38" as="geometry" />
        </mxCell>
        <mxCell id="fz4qHe9QPu19-6VbCRjk-13" value="用户" style="text;html=1;strokeColor=none;fillColor=none;align=center;verticalAlign=middle;whiteSpace=wrap;rounded=0;" vertex="1" parent="1">
          <mxGeometry x="700" y="783" width="60" height="30" as="geometry" />
        </mxCell>
        <mxCell id="fz4qHe9QPu19-6VbCRjk-14" value="" style="verticalLabelPosition=bottom;verticalAlign=top;html=1;shape=hexagon;perimeter=hexagonPerimeter2;arcSize=6;size=0.27;" vertex="1" parent="1">
          <mxGeometry x="850" y="764" width="160" height="60" as="geometry" />
        </mxCell>
        <mxCell id="fz4qHe9QPu19-6VbCRjk-16" value="" style="shape=umlActor;verticalLabelPosition=bottom;verticalAlign=top;html=1;" vertex="1" parent="1">
          <mxGeometry x="890" y="775" width="20" height="38" as="geometry" />
        </mxCell>
        <mxCell id="fz4qHe9QPu19-6VbCRjk-17" value="经理" style="text;html=1;strokeColor=none;fillColor=none;align=center;verticalAlign=middle;whiteSpace=wrap;rounded=0;" vertex="1" parent="1">
          <mxGeometry x="910" y="779" width="60" height="30" as="geometry" />
        </mxCell>
        <mxCell id="fz4qHe9QPu19-6VbCRjk-18" value="" style="endArrow=none;html=1;rounded=0;entryX=0.5;entryY=1;entryDx=0;entryDy=0;" edge="1" parent="1" source="fz4qHe9QPu19-6VbCRjk-5" target="oMoR7sOk6pPhSL6UZnWa-19">
          <mxGeometry width="50" height="50" relative="1" as="geometry">
            <mxPoint x="570" y="770" as="sourcePoint" />
            <mxPoint x="620" y="720" as="targetPoint" />
          </mxGeometry>
        </mxCell>
        <mxCell id="fz4qHe9QPu19-6VbCRjk-19" value="" style="endArrow=none;html=1;rounded=0;entryX=0.375;entryY=0;entryDx=0;entryDy=0;exitX=0.626;exitY=1.058;exitDx=0;exitDy=0;exitPerimeter=0;" edge="1" parent="1" source="oMoR7sOk6pPhSL6UZnWa-17" target="fz4qHe9QPu19-6VbCRjk-10">
          <mxGeometry width="50" height="50" relative="1" as="geometry">
            <mxPoint x="640" y="770" as="sourcePoint" />
            <mxPoint x="690" y="720" as="targetPoint" />
          </mxGeometry>
        </mxCell>
        <mxCell id="fz4qHe9QPu19-6VbCRjk-20" value="" style="endArrow=none;html=1;rounded=0;entryX=0.562;entryY=0.98;entryDx=0;entryDy=0;entryPerimeter=0;" edge="1" parent="1" target="oMoR7sOk6pPhSL6UZnWa-9">
          <mxGeometry width="50" height="50" relative="1" as="geometry">
            <mxPoint x="733" y="770" as="sourcePoint" />
            <mxPoint x="790" y="650" as="targetPoint" />
          </mxGeometry>
        </mxCell>
        <mxCell id="fz4qHe9QPu19-6VbCRjk-21" value="" style="endArrow=none;html=1;rounded=0;entryX=0.5;entryY=1;entryDx=0;entryDy=0;" edge="1" parent="1" target="oMoR7sOk6pPhSL6UZnWa-13">
          <mxGeometry width="50" height="50" relative="1" as="geometry">
            <mxPoint x="940" y="765" as="sourcePoint" />
            <mxPoint x="990" y="715" as="targetPoint" />
          </mxGeometry>
        </mxCell>
        <mxCell id="fz4qHe9QPu19-6VbCRjk-22" value="" style="endArrow=none;html=1;rounded=0;entryX=0.5;entryY=1;entryDx=0;entryDy=0;exitX=0.375;exitY=0;exitDx=0;exitDy=0;" edge="1" parent="1" source="fz4qHe9QPu19-6VbCRjk-14" target="oMoR7sOk6pPhSL6UZnWa-21">
          <mxGeometry width="50" height="50" relative="1" as="geometry">
            <mxPoint x="910" y="760" as="sourcePoint" />
            <mxPoint x="860" y="730" as="targetPoint" />
          </mxGeometry>
        </mxCell>
        <mxCell id="fz4qHe9QPu19-6VbCRjk-23" value="" style="endArrow=none;html=1;rounded=0;entryX=0.5;entryY=1;entryDx=0;entryDy=0;exitX=0.5;exitY=0;exitDx=0;exitDy=0;" edge="1" parent="1" source="fz4qHe9QPu19-6VbCRjk-1" target="oMoR7sOk6pPhSL6UZnWa-15">
          <mxGeometry width="50" height="50" relative="1" as="geometry">
            <mxPoint x="1130" y="710" as="sourcePoint" />
            <mxPoint x="1180" y="660" as="targetPoint" />
          </mxGeometry>
        </mxCell>
        <mxCell id="fz4qHe9QPu19-6VbCRjk-25" value="" style="strokeWidth=2;html=1;shape=mxgraph.flowchart.start_2;whiteSpace=wrap;" vertex="1" parent="1">
          <mxGeometry x="960" y="630" width="30" height="30" as="geometry" />
        </mxCell>
        <mxCell id="fz4qHe9QPu19-6VbCRjk-26" value="" style="strokeWidth=2;html=1;shape=mxgraph.flowchart.start_2;whiteSpace=wrap;" vertex="1" parent="1">
          <mxGeometry x="1150" y="640" width="30" height="30" as="geometry" />
        </mxCell>
        <mxCell id="fz4qHe9QPu19-6VbCRjk-27" value="" style="strokeWidth=2;html=1;shape=mxgraph.flowchart.start_2;whiteSpace=wrap;" vertex="1" parent="1">
          <mxGeometry x="870" y="720" width="30" height="30" as="geometry" />
        </mxCell>
        <mxCell id="fz4qHe9QPu19-6VbCRjk-30" value="" style="strokeWidth=2;html=1;shape=mxgraph.flowchart.start_2;whiteSpace=wrap;" vertex="1" parent="1">
          <mxGeometry x="720" y="650" width="30" height="30" as="geometry" />
        </mxCell>
        <mxCell id="fz4qHe9QPu19-6VbCRjk-31" value="" style="strokeWidth=2;html=1;shape=mxgraph.flowchart.start_2;whiteSpace=wrap;" vertex="1" parent="1">
          <mxGeometry x="670" y="715" width="30" height="30" as="geometry" />
        </mxCell>
        <mxCell id="fz4qHe9QPu19-6VbCRjk-32" value="" style="strokeWidth=2;html=1;shape=mxgraph.flowchart.start_2;whiteSpace=wrap;" vertex="1" parent="1">
          <mxGeometry x="470" y="715" width="30" height="30" as="geometry" />
        </mxCell>
        <mxCell id="fz4qHe9QPu19-6VbCRjk-33" value="" style="verticalLabelPosition=bottom;verticalAlign=top;html=1;shape=hexagon;perimeter=hexagonPerimeter2;arcSize=6;size=0.27;" vertex="1" parent="1">
          <mxGeometry x="200" y="764" width="160" height="60" as="geometry" />
        </mxCell>
        <mxCell id="fz4qHe9QPu19-6VbCRjk-35" value="" style="shape=umlActor;verticalLabelPosition=bottom;verticalAlign=top;html=1;" vertex="1" parent="1">
          <mxGeometry x="240" y="775" width="20" height="38" as="geometry" />
        </mxCell>
        <mxCell id="fz4qHe9QPu19-6VbCRjk-36" value="广告商" style="text;html=1;strokeColor=none;fillColor=none;align=center;verticalAlign=middle;whiteSpace=wrap;rounded=0;" vertex="1" parent="1">
          <mxGeometry x="260" y="781" width="60" height="30" as="geometry" />
        </mxCell>
        <mxCell id="fz4qHe9QPu19-6VbCRjk-37" value="" style="endArrow=none;html=1;rounded=0;entryX=0.5;entryY=1;entryDx=0;entryDy=0;exitX=0.5;exitY=0;exitDx=0;exitDy=0;startArrow=none;" edge="1" parent="1" source="fz4qHe9QPu19-6VbCRjk-38" target="oMoR7sOk6pPhSL6UZnWa-25">
          <mxGeometry width="50" height="50" relative="1" as="geometry">
            <mxPoint x="240" y="740" as="sourcePoint" />
            <mxPoint x="290" y="690" as="targetPoint" />
          </mxGeometry>
        </mxCell>
        <mxCell id="fz4qHe9QPu19-6VbCRjk-38" value="" style="strokeWidth=2;html=1;shape=mxgraph.flowchart.start_2;whiteSpace=wrap;" vertex="1" parent="1">
          <mxGeometry x="265" y="680" width="30" height="30" as="geometry" />
        </mxCell>
        <mxCell id="fz4qHe9QPu19-6VbCRjk-39" value="" style="endArrow=none;html=1;rounded=0;entryX=0.5;entryY=1;entryDx=0;entryDy=0;exitX=0.5;exitY=0;exitDx=0;exitDy=0;" edge="1" parent="1" source="fz4qHe9QPu19-6VbCRjk-33" target="fz4qHe9QPu19-6VbCRjk-38">
          <mxGeometry width="50" height="50" relative="1" as="geometry">
            <mxPoint x="280" y="764" as="sourcePoint" />
            <mxPoint x="290" y="540" as="targetPoint" />
          </mxGeometry>
        </mxCell>
      </root>
    </mxGraphModel>
  </diagram>
</mxfile>
